# xmcd CD database file
#
# Track frame offsets:
#	150
#	13946
#	35859
#	51945
#	67448
#	84608
#	98234
#	115040
#	130787
#	146940
#	165912
#	181662
#	203154
#	219787
#	235617
#	251183
#	277811
#	296789
#
# Disc length: 4166 seconds
#
# Revision: 7
# Processed by: cddbd v1.5.2PL0 Copyright (c) Steve Scherf et al.
# Submitted via: CDex 1.94
#
DISCID=0d104412
DTITLE=The Cure - Acoustic Hits
DYEAR=2001
DGENRE=Alternative
TTITLE0=Boys Don't Cry (Acoustic)
TTITLE1=A Forest (Acoustic)
TTITLE2=Let's Go To Bed (Acoustic)
TTITLE3=The Walk (Acoustic)
TTITLE4=The Lovecats (Acoustic)
TTITLE5=Inbetween Days (Acoustic)
TTITLE6=Close To Me (Acoustic)
TTITLE7=Why Can't I Be You? (Acoustic)
TTITLE8=Just Like Heaven (Acoustic)
TTITLE9=Lullaby (Acoustic)
TTITLE10=Lovesong (Acoustic)
TTITLE11=Never Enough (Acoustic)
TTITLE12=High (Acoustic)
TTITLE13=Friday I'm In Love (Acoustic)
TTITLE14=Mint Car (Acoustic)
TTITLE15=Wrong Number (Acoustic)
TTITLE16=Cut Here (Acoustic)
TTITLE17=Just Say Yes (Acoustic)
EXTD=YEAR: 2001
EXTT0=
EXTT1=
EXTT2=
EXTT3=
EXTT4=
EXTT5=
EXTT6=
EXTT7=
EXTT8=
EXTT9=
EXTT10=
EXTT11=
EXTT12=
EXTT13=
EXTT14=
EXTT15=
EXTT16=
EXTT17=
PLAYORDER=
